<svg width="41" height="40" viewBox="0 0 41 40" fill="none" xmlns="http://www.w3.org/2000/svg">
<g clip-path="url(#clip0_661_167)">
<mask id="mask0_661_167" style="mask-type:luminance" maskUnits="userSpaceOnUse" x="0" y="0" width="41" height="40">
<path d="M40.2002 0H0.200195V40H40.2002V0Z" fill="white"/>
</mask>
<g mask="url(#mask0_661_167)">
<path fill-rule="evenodd" clip-rule="evenodd" d="M3.01197 2.81178C0.200195 5.62356 0.200195 10.149 0.200195 19.2V20.8C0.200195 29.851 0.200195 34.3764 3.01197 37.1882C5.82376 40 10.3492 40 19.4002 40H21.0002C30.0512 40 34.5766 40 37.3884 37.1882C40.2002 34.3764 40.2002 29.851 40.2002 20.8V19.2C40.2002 10.149 40.2002 5.62356 37.3884 2.81178C34.5766 0 30.0512 0 21.0002 0H19.4002C10.3492 0 5.82376 0 3.01197 2.81178ZM6.95028 12.1668C7.16692 22.5668 12.3669 28.8167 21.4836 28.8167H22.0003V22.8667C25.3503 23.2 27.8835 25.6501 28.9001 28.8167H33.6336C32.3336 24.0834 28.9168 21.4667 26.7834 20.4667C28.9168 19.2334 31.9168 16.2334 32.6334 12.1668H28.3333C27.4 15.4668 24.6336 18.4667 22.0003 18.75V12.1668H17.7002V23.7C15.0335 23.0334 11.6669 19.8001 11.5169 12.1668H6.95028Z" fill="currentColor"/>
</g>
</g>
<defs>
<clipPath id="clip0_661_167">
<rect width="40.4" height="40" fill="white"/>
</clipPath>
</defs>
</svg>
