<svg width="70" height="70" viewBox="0 0 70 70" fill="none" xmlns="http://www.w3.org/2000/svg">
<g clip-path="url(#clip0_583_581)">
<path d="M34.8565 70H35.1435C49.0431 70 57.1053 68.5885 62.823 63.0622C68.6603 57.177 70 49.0431 70 35.1914V34.8086C70 20.9569 68.6603 12.8947 62.823 6.9378C57.1292 1.41148 48.9952 0 35.1435 0H34.8565C20.9569 0 12.8947 1.41148 7.17703 6.9378C1.33971 12.8469 0 20.9569 0 34.8086V35.1914C0 49.0431 1.33971 57.1053 7.17703 63.0622C12.8469 68.6124 20.9569 70 34.8565 70Z" fill="white"/>
<path d="M61.6747 34.4728C61.6747 34.2096 61.4594 33.9943 61.1962 33.9704C51.6269 33.6115 45.8135 32.3915 41.7226 28.3245C37.6317 24.2336 36.4116 18.4202 36.0527 8.82686C36.0527 8.5637 35.8135 8.34839 35.5503 8.34839H34.4498C34.1867 8.34839 33.9714 8.5637 33.9474 8.82686C33.5886 18.4202 32.3685 24.2575 28.2776 28.3245C24.2106 32.3915 18.3733 33.6115 8.80391 33.9704C8.54075 33.9704 8.32544 34.2096 8.32544 34.4728V35.5972C8.32544 35.8603 8.54075 36.0757 8.80391 36.0996C18.3733 36.4584 24.1867 37.6785 28.2776 41.7455C32.3685 45.8125 33.5647 51.6259 33.9235 61.1953C33.9235 61.4584 34.1628 61.6737 34.4259 61.6737H35.5503C35.8135 61.6737 36.0288 61.4584 36.0527 61.1953C36.4116 51.6498 37.6317 45.8364 41.6986 41.7455C45.7656 37.6785 51.6029 36.4584 61.1723 36.0996C61.4355 36.0996 61.6508 35.8603 61.6508 35.5972L61.6747 34.4728Z" fill="#1E1E1E"/>
</g>
<defs>
<clipPath id="clip0_583_581">
<rect width="70" height="70" fill="white"/>
</clipPath>
</defs>
</svg>
