<svg width="71" height="71" viewBox="0 0 71 71" fill="none" xmlns="http://www.w3.org/2000/svg">
<path d="M0 33.5937C0 17.7656 0 9.84375 4.95688 4.92187C9.91376 0 17.892 0 33.8327 0H36.6652C52.6059 0 60.5841 0 65.541 4.92187C70.4979 9.84375 70.4979 17.7656 70.4979 33.6094V36.4219C70.4979 52.25 70.4979 60.1719 65.541 65.0937C60.5841 70.0156 52.6059 70.0156 36.6652 70.0156H33.8327C17.892 70.0156 9.91376 70.0156 4.95688 65.0937C0 60.1562 0 52.2344 0 36.4062V33.5937Z" fill="#FF7700"/>
<path d="M35.2491 34.812C38.6954 34.812 41.8111 33.437 44.0771 31.2026C46.3431 28.9526 47.7122 25.8433 47.7122 22.437C47.7122 19.0308 46.3274 15.9214 44.0771 13.6714C41.8111 11.437 38.7111 10.062 35.2491 10.062C31.7872 10.062 28.6872 11.437 26.4212 13.6714C24.1552 15.9214 22.7861 18.9995 22.7861 22.437C22.7861 25.8745 24.1709 28.9526 26.4212 31.2026C28.6872 33.4214 31.8029 34.812 35.2491 34.812ZM31.2679 18.4526C32.3065 17.4214 33.7227 16.7964 35.2491 16.7964C36.7755 16.7964 38.2233 17.4214 39.2304 18.4526C40.269 19.4839 40.8984 20.8901 40.8984 22.4058C40.8984 23.937 40.269 25.3589 39.2304 26.3589C38.1918 27.3901 36.7755 28.0151 35.2491 28.0151C33.7227 28.0151 32.275 27.3901 31.2679 26.3589C30.2293 25.3276 29.5999 23.9214 29.5999 22.4058C29.5999 20.8901 30.2293 19.4839 31.2679 18.4526Z" fill="white"/>
<path d="M52.0082 39.7964L48.3416 34.8433C48.1213 34.562 47.7437 34.5308 47.4604 34.7495C44.0142 37.687 39.7655 39.5464 35.2177 39.5464C30.67 39.5464 26.4212 37.6402 22.975 34.7495C22.7232 34.5308 22.3141 34.562 22.0938 34.8433L18.4587 39.7964C18.2699 40.0464 18.3328 40.3902 18.5532 40.5777C21.6374 43.0777 25.2095 44.7183 28.939 45.5933L21.2126 59.0933C21.0237 59.4683 21.307 59.937 21.7476 59.937H29.3167C29.537 59.937 29.7573 59.812 29.8517 59.5933L35.2492 47.6245L40.6467 59.5933C40.7411 59.812 40.9614 59.937 41.1817 59.937H48.7508C49.1914 59.937 49.4746 59.4683 49.2543 59.0933L41.5279 45.5933C45.2574 44.7183 48.8137 43.062 51.8823 40.5777C52.134 40.3902 52.1655 40.0464 52.0082 39.7964Z" fill="white"/>
</svg>
