<svg width="70" height="70" viewBox="0 0 70 70" fill="none" xmlns="http://www.w3.org/2000/svg">
<path d="M36.4624 0C52.2563 0 60.1857 0 65.0604 4.93965C70 9.87929 70 17.7437 70 33.5376V36.4624C70 52.2563 70 60.1857 65.0604 65.0604C60.1207 69.935 52.2563 70 36.4624 70H33.5376C17.7437 70 9.8143 70 4.93965 65.0604C0 60.1857 0 52.2563 0 36.4624V33.5376C0 17.7437 0 9.8143 4.93965 4.93965C9.8143 0 17.7437 0 33.5376 0H36.4624Z" fill="#0077FF"/>
<path fill-rule="evenodd" clip-rule="evenodd" d="M54.921 69.3506C50.3713 70.0006 44.3918 70.0006 36.3973 70.0006H33.4725C17.6787 70.0006 9.74922 70.0006 4.87457 65.0609C2.14477 62.3311 0.909856 58.6264 0.389893 53.2318C1.03985 48.9421 2.46974 43.6775 4.28961 36.7879L5.00456 33.9931C9.03428 18.9142 11.0491 11.4398 17.0287 7.995C22.4233 4.94022 29.1178 6.30512 41.532 9.55489C53.8811 12.9346 60.3806 15.1445 63.5004 20.4741C67.0101 26.4537 64.9953 33.9281 60.9656 49.0071L60.2506 51.8019C58.3008 59.4713 56.7409 65.1259 54.921 69.3506Z" fill="#D357FF"/>
<path d="M29.3784 17.094C29.2485 15.2741 27.6886 13.9092 25.8687 14.0392C24.0488 14.1692 22.6839 15.7291 22.8139 17.549L23.4639 28.4682C23.5939 30.2881 25.1537 31.653 26.9736 31.523C28.7935 31.393 30.1584 29.8331 30.0284 28.0132L29.3784 17.094ZM44.3924 18.7839C44.8473 17.029 43.8074 15.2092 42.0525 14.7542C40.2977 14.2992 38.4778 15.3391 38.0228 17.094L35.033 28.7282C34.5781 30.4831 35.618 32.3029 37.3729 32.7579C39.1278 33.2129 40.9476 32.1729 41.4026 30.4181L44.3924 18.7839ZM28.5985 41.4023C28.2085 41.1423 27.6236 40.9473 26.8436 41.0773C25.6737 41.2073 24.5038 42.2472 24.5038 44.4571C24.5038 50.1767 29.1185 54.7913 34.8381 54.7913C40.5576 54.7913 45.1723 50.1767 45.1723 44.4571C45.1723 42.8322 44.5874 40.6873 43.8724 39.5174C42.8975 37.9575 43.4174 35.9427 44.9123 34.9677C46.4722 33.9928 48.4871 34.5128 49.462 36.0077C49.462 36.0077 49.462 36.0727 49.527 36.0727C50.8919 38.4125 51.7369 41.7273 51.7369 44.3921C51.7369 53.7514 44.1974 61.3559 34.8381 61.3559C25.4787 61.3559 17.8743 53.8164 17.8743 44.4571C17.8743 39.6474 21.059 35.1627 25.9987 34.5128C30.8733 33.9278 34.1231 36.7876 35.618 39.7774C36.3979 41.4023 35.748 43.3521 34.1231 44.1971C32.4982 45.042 30.5484 44.3271 29.7034 42.7022C29.4434 42.1172 29.0535 41.6623 28.5985 41.4023Z" fill="white"/>
</svg>
