<svg width="70" height="70" viewBox="0 0 70 70" fill="none" xmlns="http://www.w3.org/2000/svg">
<g clip-path="url(#clip0_583_586)">
<path d="M4.98488 5.14383C0.227867 9.90091 0.085554 17.4705 0.0812988 32.3291C13.3971 32.3291 21.7108 26.6129 29.0034 21.598C34.7004 17.6806 39.7745 14.1917 46.1226 14.1917C55.5723 14.1917 63.8229 20.8729 68.1975 24.4155C68.8142 24.915 69.3541 25.3524 69.8097 25.6998C69.6716 15.1056 68.9286 9.13488 64.9376 5.14383C60.0335 0.240112 52.1415 0.240112 36.3564 0.240112H33.566C17.7811 0.240112 9.88867 0.240112 4.98488 5.14383Z" fill="#0077FF"/>
<path d="M0.0814372 32.3291C13.3973 32.3291 21.711 26.613 29.0035 21.598C34.7005 17.6807 39.7741 14.1917 46.123 14.1917C55.572 14.1917 63.8232 20.8729 68.1979 24.4155C68.8145 24.915 69.3545 25.3524 69.81 25.6998C69.8414 28.1226 69.8414 30.7867 69.8414 33.725V36.5154C69.8414 52.3 69.8414 60.1927 64.938 65.0968C60.2508 69.7833 52.8346 69.9905 38.4068 69.9995H31.5158C17.0883 69.9905 9.67171 69.7833 4.98502 65.0968C0.0812988 60.1927 0.0812988 52.3 0.0812988 36.5154V33.725C0.0812988 33.2527 0.0812988 32.7874 0.0814372 32.3291Z" fill="#F45FFF"/>
<path d="M54.1448 35.8008C54.1448 34.077 55.5602 32.679 57.284 32.679C59.0085 32.679 60.4232 34.077 60.4232 35.8008V48.3925C60.4232 50.117 59.0085 51.5142 57.284 51.5142C55.5602 51.5142 54.1448 50.117 54.1448 48.3925V35.8008Z" fill="white"/>
<path d="M42.9844 27.7788C42.9844 26.055 44.3998 24.657 46.1236 24.657C47.8474 24.657 49.2628 26.055 49.2628 27.7788V56.4153C49.2628 58.1398 47.8474 59.5371 46.1236 59.5371C44.3998 59.5371 42.9844 58.1398 42.9844 56.4153V27.7788Z" fill="white"/>
<path d="M31.8232 35.8008C31.8232 34.077 33.2383 32.679 34.9624 32.679C36.6866 32.679 38.1017 34.077 38.1017 35.8008V48.3925C38.1017 50.1163 36.6866 51.5142 34.9624 51.5142C33.2383 51.5142 31.8232 50.1163 31.8232 48.3925V35.8008Z" fill="white"/>
<path d="M20.6592 40.3351C20.6592 38.6106 22.0743 37.2133 23.7984 37.2133C25.5225 37.2133 26.9376 38.6106 26.9376 40.3351V43.858C26.9376 45.5817 25.5225 46.9797 23.7984 46.9797C22.0743 46.9797 20.6592 45.5817 20.6592 43.858V40.3351Z" fill="white"/>
<path d="M9.4978 40.3351C9.4978 38.6106 10.9129 37.2133 12.637 37.2133C14.3611 37.2133 15.7762 38.6106 15.7762 40.3351V43.858C15.7762 45.5817 14.3611 46.9797 12.637 46.9797C10.9129 46.9797 9.4978 45.5817 9.4978 43.858V40.3351Z" fill="white"/>
</g>
<defs>
<clipPath id="clip0_583_586">
<rect width="70" height="70" fill="white"/>
</clipPath>
</defs>
</svg>
