<svg width="66" height="70" viewBox="0 0 66 70" fill="none" xmlns="http://www.w3.org/2000/svg">
<mask id="mask0_583_585" style="mask-type:luminance" maskUnits="userSpaceOnUse" x="0" y="0" width="66" height="70">
<path d="M65.7895 0H0V70H65.7895V0Z" fill="white"/>
</mask>
<g mask="url(#mask0_583_585)">
<path d="M0 25.5781C0 4.53281 4.26019 -3.05176e-05 24.0396 -3.05176e-05H41.7194C61.5293 -3.05176e-05 65.7591 4.53281 65.7591 25.5781V44.3894C65.7591 65.4671 61.4989 69.9676 41.7194 69.9676H24.0396C4.22976 69.9676 0 65.4348 0 44.3894V25.5781Z" fill="#0077FF"/>
<path d="M35.3594 69.9989H41.6279C61.0726 69.9989 65.5763 65.6927 65.7893 45.8454V44.3884V25.5771C65.7893 25.0591 65.7893 24.5086 65.7893 24.023C65.5763 4.30513 61.0118 -0.00106812 41.6279 -0.00106812H35.3594C15.4582 -0.00106812 11.198 4.53177 11.198 25.5771V44.3884C11.198 65.4985 15.4582 69.9989 35.3594 69.9989Z" fill="#FF2B42"/>
<path d="M46.4365 28.9445C49.7533 30.9843 51.427 32.0203 51.9747 33.3478C52.4616 34.5134 52.4616 35.8409 51.9747 37.0065C51.427 38.3339 49.7533 39.37 46.4365 41.4098L37.3075 47.0111C33.9906 49.0509 32.317 50.0869 30.9476 49.9251C29.7609 49.7955 28.6654 49.1156 27.9655 48.1119C27.1743 46.9463 27.1743 44.8742 27.1743 40.7946V29.5597C27.1743 25.4801 27.1743 23.4403 27.9655 22.2424C28.6654 21.2063 29.7609 20.5587 30.9476 20.4292C32.317 20.2673 33.9906 21.3034 37.3075 23.3432L46.4365 28.9445Z" fill="white"/>
</g>
</svg>
