<svg xmlns="http://www.w3.org/2000/svg" width="70" height="70" fill="none" viewBox="0 0 70 70"><path fill="#07f" d="M33.533 70h2.934c15.855 0 23.743 0 28.658-4.918C70 60.164 70 52.232 70 36.448v-2.975c0-15.745 0-23.677-4.875-28.595C60.17 0 52.242 0 36.427 0h-2.933C17.639 0 9.75 0 4.836 4.918 0 9.796 0 17.728 0 33.552v2.975c0 15.745 0 23.677 4.915 28.595C9.79 70 17.718 70 33.533 70"/><path fill="#fff" d="M37.219 50.407c-15.934 0-25.051-10.947-25.408-29.15h7.967c.278 13.365 6.144 18.997 10.822 20.186V21.296h7.53v11.502c4.599-.477 9.434-5.751 11.06-11.502h7.53c-1.228 6.068-4.954 11.303-10.226 14.516a22.96 22.96 0 0 1 11.97 14.595h-8.283a14.315 14.315 0 0 0-12.05-10.391v10.39z"/></svg>